<svg height="24" viewBox="0 0 960 960" width="24" xmlns="http://www.w3.org/2000/svg">
  <path
     d="M 200,880 Q 167,880 143.5,856.5 120,833 120,800 V 240 q 0,-33 23.5,-56.5 Q 167,160 200,160 h 40 V 80 h 80 v 80 H 640 V 80 h 80 v 80 h 40 q 33,0 56.5,23.5 Q 840,207 840,240 v 560 q 0,33 -23.5,56.5 Q 793,880 760,880 Z m 0,-80 H 760 V 400 H 200 Z m 0,-480 H 760 V 240 H 200 Z m 0,0 V 240 Z M 480,560 Q 463,560 451.5,548.5 440,537 440,520 440,503 451.5,491.5 463,480 480,480 q 17,0 28.5,11.5 Q 520,503 520,520 520,537 508.5,548.5 497,560 480,560 Z m -160,0 Q 303,560 291.5,548.5 280,537 280,520 280,503 291.5,491.5 303,480 320,480 q 17,0 28.5,11.5 Q 360,503 360,520 360,537 348.5,548.5 337,560 320,560 Z m 320,0 Q 623,560 611.5,548.5 600,537 600,520 600,503 611.5,491.5 623,480 640,480 q 17,0 28.5,11.5 Q 680,503 680,520 680,537 668.5,548.5 657,560 640,560 Z M 480,720 Q 463,720 451.5,708.5 440,697 440,680 440,663 451.5,651.5 463,640 480,640 q 17,0 28.5,11.5 Q 520,663 520,680 520,697 508.5,708.5 497,720 480,720 Z m -160,0 Q 303,720 291.5,708.5 280,697 280,680 280,663 291.5,651.5 303,640 320,640 q 17,0 28.5,11.5 Q 360,663 360,680 360,697 348.5,708.5 337,720 320,720 Z m 320,0 Q 623,720 611.5,708.5 600,697 600,680 600,663 611.5,651.5 623,640 640,640 q 17,0 28.5,11.5 Q 680,663 680,680 680,697 668.5,708.5 657,720 640,720 Z"
     id="path132" />
</svg>
