<?xml version="1.0" encoding="utf-8"?>
<!-- Generator: Adobe Illustrator 19.1.0, SVG Export Plug-In . SVG Version: 6.00 Build 0)  -->
<svg version="1.1" xmlns="http://www.w3.org/2000/svg" xmlns:xlink="http://www.w3.org/1999/xlink" x="0px" y="0px" width="24px"
	 height="24px" viewBox="0 0 24 24" enable-background="new 0 0 24 24" xml:space="preserve">
<g id="Bounding_Boxes">
	<path opacity="0.87" fill="none" d="M0,0h24v24H0V0z"/>
</g>
<g id="Outline_1_">
	<g>
		<path d="M12,2C6.47,2,2,6.47,2,12c0,5.53,4.47,10,10,10c5.53,0,10-4.47,10-10C22,6.47,17.53,2,12,2z M12,20c-4.41,0-8-3.59-8-8
			s3.59-8,8-8s8,3.59,8,8S16.41,20,12,20z"/>
		<polygon points="15.59,7 12,10.59 8.41,7 7,8.41 10.59,12 7,15.59 8.41,17 12,13.41 15.59,17 17,15.59 13.41,12 17,8.41 		"/>
	</g>
</g>
</svg>
