<?xml version="1.0" encoding="UTF-8" standalone="no"?>
<svg
   height="24"
   viewBox="0 0 960 960"
   width="24"
   xmlns="http://www.w3.org/2000/svg">
  <path
     d="m 486.10171,816.27119 c -22,0 -40.83333,-7.83333 -56.5,-23.5 -15.66667,-15.66667 -23.5,-34.5 -23.5,-56.5 0,-22 7.83333,-40.83333 23.5,-56.5 15.66667,-15.66667 34.5,-23.5 56.5,-23.5 22,0 40.83333,7.83333 56.5,23.5 15.66667,15.66667 23.5,34.5 23.5,56.5 0,22 -7.83333,40.83333 -23.5,56.5 -15.66667,15.66667 -34.5,23.5 -56.5,23.5 z m 240,0 c -22,0 -40.83333,-7.83333 -56.5,-23.5 -15.66667,-15.66667 -23.5,-34.5 -23.5,-56.5 0,-22 7.83333,-40.83333 23.5,-56.5 15.66667,-15.66667 34.5,-23.5 56.5,-23.5 22,0 40.83333,7.83333 56.5,23.5 15.66667,15.66667 23.5,34.5 23.5,56.5 0,22 -7.83333,40.83333 -23.5,56.5 -15.66667,15.66667 -34.5,23.5 -56.5,23.5 z m -240,-240 c -22,0 -40.83333,-7.83333 -56.5,-23.5 -15.66667,-15.66667 -23.5,-34.5 -23.5,-56.5 0,-22 7.83333,-40.83333 23.5,-56.5 15.66667,-15.66667 34.5,-23.5 56.5,-23.5 22,0 40.83333,7.83333 56.5,23.5 15.66667,15.66667 23.5,34.5 23.5,56.5 0,22 -7.83333,40.83333 -23.5,56.5 -15.66667,15.66667 -34.5,23.5 -56.5,23.5 z m 240,0 c -22,0 -40.83333,-7.83333 -56.5,-23.5 -15.66667,-15.66667 -23.5,-34.5 -23.5,-56.5 0,-22 7.83333,-40.83333 23.5,-56.5 15.66667,-15.66667 34.5,-23.5 56.5,-23.5 22,0 40.83333,7.83333 56.5,23.5 15.66667,15.66667 23.5,34.5 23.5,56.5 0,22 -7.83333,40.83333 -23.5,56.5 -15.66667,15.66667 -34.5,23.5 -56.5,23.5 z m 0,-240 c -22,0 -40.83333,-7.83333 -56.5,-23.5 -15.66667,-15.66667 -23.5,-34.5 -23.5,-56.5 0,-22 7.83333,-40.83333 23.5,-56.5 15.66667,-15.66667 34.5,-23.5 56.5,-23.5 22,0 40.83333,7.83333 56.5,23.5 15.66667,15.66667 23.5,34.5 23.5,56.5 0,22 -7.83333,40.83333 -23.5,56.5 -15.66667,15.66667 -34.5,23.5 -56.5,23.5 z" />
  <path
     d="m 230.50848,823.05085 c -22,0 -40.83333,-7.83333 -56.5,-23.5 -15.66667,-15.66667 -23.5,-34.5 -23.5,-56.5 0,-22 7.83333,-40.83333 23.5,-56.5 15.66667,-15.66667 34.5,-23.5 56.5,-23.5 22,0 40.83333,7.83333 56.5,23.5 15.66667,15.66667 23.5,34.5 23.5,56.5 0,22 -7.83333,40.83333 -23.5,56.5 -15.66667,15.66667 -34.5,23.5 -56.5,23.5 z" />
</svg>
