<?xml version="1.0" encoding="UTF-8" standalone="no"?>
<svg
   xmlns:dc="http://purl.org/dc/elements/1.1/"
   xmlns:cc="http://creativecommons.org/ns#"
   xmlns:rdf="http://www.w3.org/1999/02/22-rdf-syntax-ns#"
   xmlns:svg="http://www.w3.org/2000/svg"
   xmlns="http://www.w3.org/2000/svg"
   id="svg93"
   viewBox="0 0 24 24"
   height="24"
   width="24"
   version="1.1">
  <metadata
     id="metadata99">
    <rdf:RDF>
      <cc:Work
         rdf:about="">
        <dc:format>image/svg+xml</dc:format>
        <dc:type
           rdf:resource="http://purl.org/dc/dcmitype/StillImage" />
        <dc:title></dc:title>
      </cc:Work>
    </rdf:RDF>
  </metadata>
  <defs
     id="defs97" />
  <path
     d="M 6.140625 2.3847656 A 1.9450048 1.956004 0 0 0 4.1953125 4.3398438 L 4.1953125 19.988281 A 1.9450048 1.956004 0 0 0 6.140625 21.943359 L 17.810547 21.943359 A 1.9450048 1.956004 0 0 0 19.755859 19.988281 L 19.755859 8.2519531 L 13.919922 2.3847656 L 6.140625 2.3847656 z M 12.974609 3.6640625 L 18.474609 9.1640625 L 12.974609 9.1640625 L 12.974609 3.6640625 z M 8.3710938 4.6542969 L 8.8261719 4.6542969 L 8.8261719 4.65625 L 9.8789062 4.65625 L 9.8789062 4.96875 L 9.8789062 5.2148438 L 9.8789062 5.4277344 C 9.8789062 5.4510244 9.8611806 5.4707031 9.8378906 5.4707031 L 8.8261719 5.4707031 L 8.8261719 7.6777344 L 8.8261719 7.78125 C 8.8354757 8.1929754 8.3830389 8.4780382 8.0019531 8.4140625 C 7.6789217 8.3754998 7.3921552 8.0926296 7.4042969 7.7578125 C 7.4102087 7.4054489 7.7546359 7.1430619 8.0917969 7.1464844 C 8.1868407 7.1406365 8.2809902 7.1600781 8.3710938 7.1914062 L 8.3710938 4.6542969 z "
     style="fill:#000000;fill-rule:evenodd;stroke-width:0.758587"
     id="path343" />
</svg>
