<?xml version="1.0" encoding="UTF-8"?>
<!DOCTYPE svg PUBLIC "-//W3C//DTD SVG 1.1//EN" "http://www.w3.org/Graphics/SVG/1.1/DTD/svg11.dtd">
<svg xmlns="http://www.w3.org/2000/svg" xmlns:xlink="http://www.w3.org/1999/xlink" version="1.1" width="24" height="24" viewBox="0 0 24 24"><path style="fill:#000000;stroke-width:0.758587" d="m 8.5489811,5.1365526 c 0.6291226,0 1.136968,0.5086607 1.136968,1.1387931 0,0.6301315 -0.5078454,1.138793 -1.136968,1.138793 -0.636702,0 -1.1369682,-0.5086615 -1.1369682,-1.138793 0,-0.6301324 0.5078458,-1.1387931 1.1369682,-1.1387931 z M 8.12769,4.1000094 c -0.054902,0 -0.1013548,0.038698 -0.1098008,0.090302 L 7.9376517,4.7579098 C 7.8109575,4.8138129 7.6884879,4.8826089 7.5786873,4.9600091 L 7.0550226,4.7450081 c -0.046454,0 -0.1013542,0 -0.130916,0.055903 L 6.5017968,5.5448094 c -0.025338,0.047296 -0.016893,0.1031993 0.025338,0.1375997 L 6.974783,6.0350078 c -0.00845,0.073098 -0.012669,0.1418993 -0.012669,0.2149999 0,0.073098 0.00422,0.1418994 0.012669,0.214999 L 6.5271353,6.8176064 c -0.038008,0.034399 -0.050677,0.090302 -0.025338,0.1375997 l 0.4223099,0.7438975 c 0.025338,0.055903 0.080239,0.055903 0.1309161,0.055903 l 0.523664,-0.2150057 c 0.1098007,0.077396 0.2280475,0.1504996 0.3589638,0.2020989 l 0.080237,0.5675985 c 0.00844,0.051604 0.050679,0.090302 0.1098008,0.090302 h 0.8446195 c 0.046453,0 0.092906,-0.038698 0.101355,-0.090302 L 9.1539069,7.7420995 C 9.2806,7.6861968 9.3946235,7.6174007 9.5086472,7.5400006 l 0.5194388,0.2149989 c 0.05491,0 0.109802,0 0.139363,-0.055903 L 10.58976,6.9551982 C 10.6151,6.9079022 10.60243,6.8519989 10.56442,6.8175984 L 10.11255,6.4649991 c 0.0085,-0.073098 0.01689,-0.1418994 0.01689,-0.214999 0,-0.073098 -0.0043,-0.1418993 -0.01689,-0.2149999 l 0.447648,-0.3525988 c 0.03801,-0.0344 0.05068,-0.090302 0.02535,-0.1375998 l -0.42232,-0.7438974 c -0.02534,-0.055903 -0.08024,-0.055903 -0.135141,-0.055903 L 9.5086472,4.9599994 C 9.3946235,4.8826031 9.2806,4.8094997 9.1496836,4.7579005 L 9.069441,4.1903019 C 9.065281,4.1386979 9.018766,4.0999999 8.97231,4.0999999 H 8.12769 M 13,9 h 5.5 L 13,3.5 V 9 M 6,2 h 8 l 6,6 v 12 a 2,2 0 0 1 -2,2 H 6 C 4.89,22 4,21.1 4,20 V 4 C 4,2.89 4.89,2 6,2" /></svg>
