<?xml version="1.0" encoding="UTF-8"?>
<!DOCTYPE svg PUBLIC "-//W3C//DTD SVG 1.1//EN" "http://www.w3.org/Graphics/SVG/1.1/DTD/svg11.dtd">
<svg xmlns="http://www.w3.org/2000/svg" xmlns:xlink="http://www.w3.org/1999/xlink" version="1.1" width="24" height="24" viewBox="0 0 24 24"><path style="fill:#000000;fill-rule:evenodd;stroke-width:0.940877" d="M 6 2 C 4.9979026 1.9799577 4.0915724 2.7956686 4.0097656 3.7949219 C 3.9858279 9.0765497 4.0068316 14.358462 4 19.640625 C 3.8556938 20.744226 4.6408127 21.907969 5.7949219 21.990234 C 9.7602778 22.014419 13.727457 21.993102 17.693359 22 C 18.814725 22.146504 19.961957 21.277434 19.996094 20.119141 C 20.004294 16.079629 19.9976 12.039599 20 8 L 14 2 L 6 2 z M 13 3.5 L 18.5 9 L 13 9 L 13 3.5 z M 6.8886719 4.4101562 C 7.4076408 4.3996432 7.8588673 4.8625721 7.8476562 5.3789062 C 7.8614266 5.8922419 7.4045151 6.3584357 6.8886719 6.3457031 C 6.3728164 6.3584316 5.917866 5.8922293 5.9316406 5.3789062 C 5.9178703 4.8655705 6.3728287 4.3974238 6.8886719 4.4101562 z M 11.363281 5.3730469 L 11.363281 8.4003906 L 5.6503906 8.4003906 L 8.5078125 6.1289062 L 9.4589844 6.8867188 L 11.363281 5.3730469 z " /></svg>
