<?xml version="1.0" encoding="UTF-8"?>
<!DOCTYPE svg PUBLIC "-//W3C//DTD SVG 1.1//EN" "http://www.w3.org/Graphics/SVG/1.1/DTD/svg11.dtd">
<svg xmlns="http://www.w3.org/2000/svg" xmlns:xlink="http://www.w3.org/1999/xlink" version="1.1" width="24" height="24" viewBox="0 0 24 24"><path style="fill:#000000;fill-rule:evenodd;stroke-width:0.777856" d="M 6.0002511,2 A 1.9999348,2.000148 0 0 0 4,3.9992013 V 20.000799 A 1.9999348,2.000148 0 0 0 6.0002511,22 H 17.999749 A 1.9999348,2.000148 0 0 0 20,20.000799 V 7.9996008 L 13.999248,2 Z M 13,3.5 18.530514,9 H 13 Z M 8.2937119,4.3207511 h 0.4679302 v 0.00199 h 1.0824651 v 0.3195526 0.2516478 0.2176952 c 0,0.023816 -0.018227,0.043939 -0.042174,0.043939 H 8.7616421 V 7.4124229 7.5182746 C 8.7712047,7.939292 8.3059943,8.2307883 7.914146,8.1653687 7.5819917,8.1259354 7.2871265,7.8366816 7.2996111,7.4943082 7.305688,7.1339923 7.6598442,6.8656836 8.0065272,6.8691834 c 0.097728,-0.00598 0.1945364,0.013901 0.2871847,0.045936 z"/></svg>
