<?xml version="1.0" encoding="UTF-8" standalone="no"?>
<svg
   xmlns:dc="http://purl.org/dc/elements/1.1/"
   xmlns:cc="http://creativecommons.org/ns#"
   xmlns:rdf="http://www.w3.org/1999/02/22-rdf-syntax-ns#"
   xmlns:svg="http://www.w3.org/2000/svg"
   xmlns="http://www.w3.org/2000/svg"
   xmlns:sodipodi="http://sodipodi.sourceforge.net/DTD/sodipodi-0.dtd"
   xmlns:inkscape="http://www.inkscape.org/namespaces/inkscape"
   inkscape:version="1.0 (4035a4fb49, 2020-05-01)"
   sodipodi:docname="file-audio.svg"
   id="svg93"
   viewBox="0 0 24 24"
   height="24"
   width="24"
   version="1.1">
  <metadata
     id="metadata99">
    <rdf:RDF>
      <cc:Work
         rdf:about="">
        <dc:format>image/svg+xml</dc:format>
        <dc:type
           rdf:resource="http://purl.org/dc/dcmitype/StillImage" />
      </cc:Work>
    </rdf:RDF>
  </metadata>
  <defs
     id="defs97" />
  <sodipodi:namedview
     inkscape:current-layer="svg93"
     inkscape:window-maximized="0"
     inkscape:window-y="247"
     inkscape:window-x="1077"
     inkscape:cy="12"
     inkscape:cx="10.5"
     inkscape:zoom="42"
     showgrid="false"
     id="namedview95"
     inkscape:window-height="1770"
     inkscape:window-width="2689"
     inkscape:pageshadow="2"
     inkscape:pageopacity="0"
     guidetolerance="10"
     gridtolerance="10"
     objecttolerance="10"
     borderopacity="1"
     bordercolor="#666666"
     pagecolor="#ffffff" />
  <path
     d="M 10.351234,4.7700889 H 9.153586 V 7.7642205 A 1.1976517,1.1976517 0 0 1 7.9559325,8.961869 1.1976517,1.1976517 0 0 1 6.7582808,7.7642205 1.1976517,1.1976517 0 0 1 7.9559325,6.5665684 c 0.2395314,0 0.4191791,0.059877 0.5988267,0.1796479 V 3.5724372 H 10.351234 V 4.7700889 M 13,9 V 3.5 L 18.5,9 Z M 14,2 H 6 A 2,2 0 0 0 4,4 v 16 a 2,2 0 0 0 2,2 h 12 a 2,2 0 0 0 2,-2 V 8 L 14,2"
     style="stroke-width:0.598819"
     id="path103" />
</svg>
