<?xml version="1.0" encoding="UTF-8" standalone="no"?>
<svg
   xmlns:dc="http://purl.org/dc/elements/1.1/"
   xmlns:cc="http://creativecommons.org/ns#"
   xmlns:rdf="http://www.w3.org/1999/02/22-rdf-syntax-ns#"
   xmlns:svg="http://www.w3.org/2000/svg"
   xmlns="http://www.w3.org/2000/svg"
   xmlns:sodipodi="http://sodipodi.sourceforge.net/DTD/sodipodi-0.dtd"
   xmlns:inkscape="http://www.inkscape.org/namespaces/inkscape"
   inkscape:version="1.0 (4035a4fb49, 2020-05-01)"
   sodipodi:docname="file-application.svg"
   id="svg86"
   viewBox="0 0 24 24"
   height="24"
   width="24"
   version="1.1">
  <metadata
     id="metadata92">
    <rdf:RDF>
      <cc:Work
         rdf:about="">
        <dc:format>image/svg+xml</dc:format>
        <dc:type
           rdf:resource="http://purl.org/dc/dcmitype/StillImage" />
        <dc:title></dc:title>
      </cc:Work>
    </rdf:RDF>
  </metadata>
  <defs
     id="defs90" />
  <sodipodi:namedview
     inkscape:current-layer="svg86"
     inkscape:window-maximized="0"
     inkscape:window-y="159"
     inkscape:window-x="2264"
     inkscape:cy="12"
     inkscape:cx="8.9166667"
     inkscape:zoom="42"
     showgrid="false"
     id="namedview88"
     inkscape:window-height="1205"
     inkscape:window-width="1517"
     inkscape:pageshadow="2"
     inkscape:pageopacity="0"
     guidetolerance="10"
     gridtolerance="10"
     objecttolerance="10"
     borderopacity="1"
     bordercolor="#666666"
     pagecolor="#ffffff"
     inkscape:document-rotation="0" />
  <path
     d="m 8.6167311,4.9134497 c 0.649799,0 1.174335,0.525378 1.174335,1.17622 0,0.650841 -0.524536,1.17622 -1.174335,1.17622 -0.6576275,0 -1.1743351,-0.525379 -1.1743351,-1.17622 0,-0.650842 0.5245365,-1.17622 1.1743351,-1.17622 z m -0.435137,-0.903943 c -0.056706,0 -0.1046858,0.03997 -0.1134094,0.09327 l -0.082875,0.586253 c -0.1308575,0.05774 -0.2573523,0.128797 -0.3707615,0.208741 L 7.0736731,4.6757037 c -0.047981,0 -0.1046854,0 -0.1352187,0.05774 l -0.4361892,0.768347 c -0.026171,0.04885 -0.017448,0.106591 0.026171,0.142122 l 0.4623604,0.364187 c -0.00873,0.0755 -0.013085,0.146563 -0.013085,0.222066 0,0.0755 0.00436,0.146563 0.013085,0.222065 l -0.4623601,0.364188 c -0.039257,0.03553 -0.052343,0.09327 -0.026171,0.142122 l 0.4361893,0.768346 c 0.026171,0.05774 0.082876,0.05774 0.1352187,0.05774 l 0.5408746,-0.222072 c 0.1134093,0.07994 0.2355424,0.155446 0.3707613,0.208741 l 0.082875,0.586253 c 0.00872,0.0533 0.052345,0.09327 0.1134094,0.09327 h 0.8723783 c 0.04798,0 0.09596,-0.03997 0.104686,-0.09327 l 0.08288,-0.586253 c 0.130857,-0.05774 0.248628,-0.128797 0.366399,-0.208741 l 0.5365109,0.222065 c 0.05671,0 0.113411,0 0.143943,-0.05774 l 0.43619,-0.768347 c 0.02617,-0.04885 0.01309,-0.106591 -0.02617,-0.142122 l -0.466724,-0.364188 c 0.0088,-0.0755 0.01745,-0.146563 0.01745,-0.222065 0,-0.0755 -0.0044,-0.146563 -0.01745,-0.222066 l 0.46236,-0.364187 c 0.03926,-0.03553 0.05235,-0.09327 0.02618,-0.142122 L 10.28403,4.7334367 c -0.02617,-0.05774 -0.08288,-0.05774 -0.139582,-0.05774 l -0.5365109,0.222064 c -0.117771,-0.07994 -0.235542,-0.155446 -0.370761,-0.208741 l -0.08288,-0.586253 c -0.0043,-0.0533 -0.05234,-0.09327 -0.100323,-0.09327 H 8.1815941 M 13,9 h 5.5 L 13,3.5 V 9 M 6,2 h 8 l 6,6 v 12 a 2,2 0 0 1 -2,2 H 6 C 4.89,22 4,21.1 4,20 V 4 C 4,2.89 4.89,2 6,2"
     style="stroke-width:0.783518"
     id="path179" />
</svg>
