<?xml version="1.0" encoding="UTF-8" standalone="no"?>
<svg
   xmlns:dc="http://purl.org/dc/elements/1.1/"
   xmlns:cc="http://creativecommons.org/ns#"
   xmlns:rdf="http://www.w3.org/1999/02/22-rdf-syntax-ns#"
   xmlns:svg="http://www.w3.org/2000/svg"
   xmlns="http://www.w3.org/2000/svg"
   version="1.1"
   width="24"
   height="24"
   viewBox="0 0 24 24"
   id="svg93">
  <metadata
     id="metadata99">
    <rdf:RDF>
      <cc:Work
         rdf:about="">
        <dc:format>image/svg+xml</dc:format>
        <dc:type
           rdf:resource="http://purl.org/dc/dcmitype/StillImage" />
        <dc:title></dc:title>
      </cc:Work>
    </rdf:RDF>
  </metadata>
  <defs
     id="defs97" />
  <path
     d="m 8.6809056,4.3240851 c 0.387983,0 0.7759662,0 1.1639494,0 0,0.190063 0,0.3801262 0,0.5701892 -0.3879832,0 -0.7759664,0 -1.1639494,0 0,-0.190063 0,-0.3801262 0,-0.5701892 z m 8e-7,0.5701906 c 0.1022946,-0.02914 0.083089,0.048358 0.081205,0.1106553 0,0.8025603 0,1.6051207 0,2.4076811 -0.1022947,0.02914 -0.083089,-0.048358 -0.081205,-0.1106553 0,-0.8025603 0,-1.6051207 0,-2.4076811 z M 8.7621114,7.519522 C 8.7830846,7.9404446 8.2600197,8.2878439 7.806583,8.1412255 7.3420955,8.0214746 7.146401,7.4728363 7.4385465,7.137277 7.6996023,6.7818103 8.3558775,6.7792745 8.6203571,7.132837 8.7123711,7.2444276 8.7624102,7.3818354 8.7621115,7.519523 Z M 13,9 V 3.5 L 18.5,9 Z M 14,2 H 6 A 2,2 0 0 0 4,4 v 16 a 2,2 0 0 0 2,2 h 12 a 2,2 0 0 0 2,-2 V 8 L 14,2"
     style="fill:#000000;fill-rule:evenodd;stroke:#ffffff;stroke-width:0.451127;stroke-miterlimit:4;stroke-dasharray:none"
     id="rect1615" />
</svg>
