<?xml version="1.0" encoding="UTF-8" standalone="no"?>
<svg
   xmlns:dc="http://purl.org/dc/elements/1.1/"
   xmlns:cc="http://creativecommons.org/ns#"
   xmlns:rdf="http://www.w3.org/1999/02/22-rdf-syntax-ns#"
   xmlns:svg="http://www.w3.org/2000/svg"
   xmlns="http://www.w3.org/2000/svg"
   xmlns:sodipodi="http://sodipodi.sourceforge.net/DTD/sodipodi-0.dtd"
   xmlns:inkscape="http://www.inkscape.org/namespaces/inkscape"
   inkscape:version="1.0 (4035a4fb49, 2020-05-01)"
   sodipodi:docname="file-image.svg"
   id="svg193"
   viewBox="0 0 24 24"
   height="24"
   width="24"
   version="1.1">
  <metadata
     id="metadata199">
    <rdf:RDF>
      <cc:Work
         rdf:about="">
        <dc:format>image/svg+xml</dc:format>
        <dc:type
           rdf:resource="http://purl.org/dc/dcmitype/StillImage" />
      </cc:Work>
    </rdf:RDF>
  </metadata>
  <defs
     id="defs197" />
  <sodipodi:namedview
     inkscape:current-layer="svg193"
     inkscape:window-maximized="0"
     inkscape:window-y="0"
     inkscape:window-x="0"
     inkscape:cy="12"
     inkscape:cx="12"
     inkscape:zoom="42"
     showgrid="false"
     id="namedview195"
     inkscape:window-height="1592"
     inkscape:window-width="1703"
     inkscape:pageshadow="2"
     inkscape:pageopacity="0"
     guidetolerance="10"
     gridtolerance="10"
     objecttolerance="10"
     borderopacity="1"
     bordercolor="#666666"
     pagecolor="#ffffff" />
  <path
     d="m 13,9 h 5.5 L 13,3.5 V 9 M 5.4125483,8.847105 H 10.100792 11.66354 V 5.5353496 L 9.5798755,7.1912274 8.5380437,6.3632885 5.4125483,8.847105 M 6.8719206,4.179814 A 1.0465894,1.0257939 0 0 0 5.8253312,5.2056079 1.0465894,1.0257939 0 0 0 6.8719206,6.2314017 1.0465894,1.0257939 0 0 0 7.9185101,5.2056079 1.0465894,1.0257939 0 0 0 6.8719206,4.179814 Z M 6,2 h 8 l 6,6 v 12 a 2,2 0 0 1 -2,2 H 6 C 4.89,22 4,21.1 4,20 V 4 C 4,2.89 4.89,2 6,2"
     style="fill:#000000"
     id="path191" />
</svg>
