<svg version="1.1" xmlns="http://www.w3.org/2000/svg" xmlns:xlink="http://www.w3.org/1999/xlink" x="0px" y="0px" width="24px"
	 height="24px" viewBox="0 0 24 24" enable-background="new 0 0 24 24" xml:space="preserve">
	<path d="M11,18h2v-2h-2V18z M12,2C6.48,2,2,6.48,2,12s4.48,10,10,10s10-4.48,10-10S17.52,2,12,2z M12,20c-4.41,0-8-3.59-8-8
		s3.59-8,8-8s8,3.59,8,8S16.41,20,12,20z M12,6c-2.21,0-4,1.79-4,4h2c0-1.1,0.9-2,2-2s2,0.9,2,2c0,2-3,1.75-3,5h2c0-2.25,3-2.5,3-5
		C16,7.79,14.21,6,12,6z"/>
</svg>
