<?xml version="1.0" encoding="UTF-8" standalone="no"?>
<svg
   xmlns="http://www.w3.org/2000/svg"
   width="24"
   height="24"
   viewBox="0 0 24 24">
  <path
     d="m 12,5 c -4,0 -7,3 -7,7 1e-7,4 3,7 7,7 4.000133,0 7,-3 7,-7 C 19,8 16.000133,5.0000001 12,5 Z M 12,2 C 6.48,2 2,6.48 2,12 2,17.52 6.48,22 12,22 17.52,22 22,17.52 22,12 22,6.48 17.52,2 12,2 Z m 0,19.012245 C 6.9998134,21.02449 3,17 2.9709368,12.01188 2.9417352,7.0000008 7,3 12,2.9877551 17,2.9755102 21.02449,7 21.012245,12 21,17 17,21 12,21.012245 Z" />
</svg>
